#!OML:ASF H:\Dans Jumps\Project 1\Capture day 1\Session 1\subject.ASF
:FULLY-SPECIFIED
:DEGREES
95
root 0.434773 17.5712 -13.6925 5.12493 -3.42942 -1.42005
lowerback -6.12849 -1.29658 -0.629495
upperback 0.105464 -1.73767 1.48484
thorax 3.61072 -0.888696 1.72687
lowerneck -14.1902 -3.51397 -3.60271
upperneck 17.0968 -4.44678 2.15601
head 7.74329 -2.1502 0.820023
rclavicle -2.34566e-014 1.98785e-016
rhumerus -25.3443 -24.4669 -64.8802
rradius 26.5885
rwrist 40.3625
rhand -26.75 -29.2292
rfingers 7.12502
rthumb -0.178624 -59.2089
lclavicle -2.34566e-014 1.98785e-016
lhumerus -19.9719 21.3507 69.2519
lradius 15.8944
lwrist -13.0867
lhand -26.9742 -6.37319
lfingers 7.12502
lthumb -0.395126 23.6062
rfemur -8.74711 -1.52585 18.5557
rtibia 17.3895
rfoot -13.2256 -1.21427
rtoes 11.2997
lfemur -6.37413 7.36478 -17.7252
ltibia 14.6024
lfoot -10.9752 5.54177
ltoes 0.432056
96
root 0.43354 17.5704 -13.6937 5.09619 -3.41038 -1.41456
lowerback -6.11509 -1.29266 -0.620938
upperback 0.110825 -1.7327 1.47438
thorax 3.60797 -0.885991 1.71193
lowerneck -14.2412 -3.45235 -3.57915
upperneck 17.2206 -4.36361 2.13198
head 7.78957 -2.11082 0.816084
rclavicle 3.82785e-014 -5.96354e-015
rhumerus -25.1829 -24.4397 -64.7976
rradius 26.5165
rwrist 40.3995
rhand -26.6004 -29.185
rfingers 7.12502
rthumb -0.0341332 -59.1647
lclavicle 3.82785e-014 -5.96354e-015
lhumerus -19.8432 21.3391 69.2564
lradius 15.9117
lwrist -13.1836
lhand -26.9978 -6.39383
lfingers 7.12502
lthumb -0.417962 23.5855
rfemur -8.72974 -1.53755 18.5544
rtibia 17.4133
rfoot -13.2358 -1.22061
rtoes 11.2831
lfemur -6.36207 7.34888 -17.7234
ltibia 14.6284
lfoot -10.9874 5.54566
ltoes 0.429723
97
root 0.432231 17.5695 -13.6949 5.0657 -3.39519 -1.40971
lowerback -6.0964 -1.28716 -0.611187
upperback 0.116051 -1.72567 1.46317
thorax 3.60196 -0.882219 1.69585
lowerneck -14.2813 -3.39874 -3.56329
upperneck 17.3342 -4.29121 2.11492
head 7.83133 -2.07655 0.814779
rclavicle 2.13507e-014 -1.19271e-015
rhumerus -25.0359 -24.4646 -64.7146
rradius 26.4295
rwrist 40.4591
rhand -26.4437 -29.171
rfingers 7.12502
rthumb 0.117187 -59.1507
lclavicle 2.13507e-014 -1.19271e-015
lhumerus -19.7372 21.3162 69.2698
lradius 15.9344
lwrist -13.294
lhand -27.0163 -6.39753
lfingers 7.12502
lthumb -0.435807 23.5818
rfemur -8.71106 -1.54597 18.5537
rtibia 17.4382
rfoot -13.2472 -1.2253
rtoes 11.2629
lfemur -6.34588 7.33277 -17.7207
ltibia 14.6532
lfoot -10.9994 5.5546
ltoes 0.416026
98
root 0.430906 17.5686 -13.6962 5.03493 -3.38549 -1.40335
lowerback -6.07517 -1.28009 -0.601906
upperback 0.121706 -1.71649 1.45065
thorax 3.59488 -0.877367 1.67893
lowerneck -14.3101 -3.35423 -3.55671
upperneck 17.4359 -4.23088 2.10569
head 7.86795 -2.04801 0.816501
rclavicle -7.52897e-015 -1.61016e-014
rhumerus -24.9014 -24.5382 -64.6354
rradius 26.3281
rwrist 40.5179
rhand -26.283 -29.1706
rfingers 7.12502
rthumb 0.272375 -59.1501
lclavicle -7.52897e-015 -1.61016e-014
lhumerus -19.6539 21.2749 69.2945
lradius 15.9667
lwrist -13.3955
lhand -27.0388 -6.40662
lfingers 7.12502
lthumb -0.457573 23.5726
rfemur -8.6939 -1.5553 18.5509
rtibia 17.4649
rfoot -13.2595 -1.22365
rtoes 11.2362
lfemur -6.32736 7.31818 -17.7202
ltibia 14.6765
lfoot -11.0107 5.569
ltoes 0.384797
99
root 0.429542 17.5677 -13.6974 5.00234 -3.37737 -1.39677
lowerback -6.04894 -1.27221 -0.591568
upperback 0.12675 -1.70622 1.43702
thorax 3.58426 -0.871934 1.66049
lowerneck -14.3255 -3.31902 -3.55875
upperneck 17.5271 -4.1829 2.10287
head 7.89949 -2.02543 0.820643
rclavicle -3.75455e-014 -5.76476e-015
rhumerus -24.7855 -24.6577 -64.5603
rradius 26.2182
rwrist 40.5712
rhand -26.1175 -29.1832
rfingers 7.12502
rthumb 0.43226 -59.1625
lclavicle -3.75455e-014 -5.76476e-015
lhumerus -19.5943 21.1993 69.3345
lradius 16.0134
lwrist -13.452
lhand -27.0761 -6.4285
lfingers 7.12502
lthumb -0.493574 23.5507
rfemur -8.67645 -1.56247 18.5479
rtibia 17.4939
rfoot -13.273 -1.22175
rtoes 11.2099
lfemur -6.30565 7.3019 -17.7198
ltibia 14.6984
lfoot -11.0203 5.58744
ltoes 0.34702
100
root 0.428159 17.5668 -13.6988 4.96891 -3.37134 -1.38865
lowerback -6.0189 -1.26328 -0.581974
upperback 0.132865 -1.69448 1.4225
thorax 3.57255 -0.865774 1.64173
lowerneck -14.3344 -3.29545 -3.57038
upperneck 17.6109 -4.14977 2.10494
head 7.92823 -2.01015 0.826451
rclavicle -1.33124e-014 -9.34288e-015
rhumerus -24.6834 -24.8249 -64.49
rradius 26.0967
rwrist 40.6219
rhand -25.9439 -29.2273
rfingers 7.12502
rthumb 0.599898 -59.2062
lclavicle -1.33124e-014 -9.34288e-015
lhumerus -19.553 21.0983 69.3897
lradius 16.0695
lwrist -13.4613
lhand -27.1106 -6.45388
lfingers 7.12502
lthumb -0.526862 23.5252
rfemur -8.66044 -1.56926 18.543
rtibia 17.5264
rfoot -13.2869 -1.21727
rtoes 11.1904
lfemur -6.28237 7.28392 -17.7213
ltibia 14.7183
lfoot -11.0267 5.61054
ltoes 0.302292
101
root 0.426749 17.5658 -13.7002 4.93485 -3.36808 -1.37785
lowerback -5.98535 -1.25262 -0.573541
upperback 0.139967 -1.68028 1.40609
thorax 3.55979 -0.858399 1.62196
lowerneck -14.3388 -3.28335 -3.58687
upperneck 17.6861 -4.13141 2.10761
head 7.95389 -2.0022 0.831708
rclavicle 9.84605e-015 -3.37934e-015
rhumerus -24.5966 -25.0495 -64.4221
rradius 25.9609
rwrist 40.6911
rhand -25.7724 -29.2625
rfingers 7.12502
rthumb 0.765603 -59.2409
lclavicle 9.84605e-015 -3.37934e-015
lhumerus -19.5257 20.9609 69.4631
lradius 16.1331
lwrist -13.4046
lhand -27.1516 -6.46098
lfingers 7.12502
lthumb -0.566536 23.518
rfemur -8.64659 -1.57647 18.5352
rtibia 17.5621
rfoot -13.3009 -1.21076
rtoes 11.165
lfemur -6.25799 7.26209 -17.7258
ltibia 14.7371
lfoot -11.0294 5.64078
ltoes 0.257125
